<svg height="512pt" viewBox="0 -9 512.00282 512" width="512pt" xmlns="http://www.w3.org/2000/svg"><path d="m404.015625 45.144531c-16.628906-2.152343-33.242187-.871093-49.503906 3.8125-23.332031-30.78125-59.683594-48.957031-98.515625-48.957031-38.832032 0-75.183594 18.1875-98.515625 48.957031-16.261719-4.667969-32.875-5.957031-49.503907-3.8125-61.035156 7.910157-107.453124 60.144531-107.97265575 121.503907-.48437525 57.40625 38.02343775 107.175781 93.64453175 121.019531 13.207031 3.28125 22.949218 14.589843 24.238281 28.140625l7.398437 77.710937h-.007812l4.230468 44.394531c1.796876 18.941407 25.773438 31.945313 35.855469 36.605469 1.441407.664063 2.597657 1.15625 3.363281 1.476563 27.738282 11.675781 57.503907 17.511718 87.269532 17.511718 29.757812 0 59.496094-5.835937 87.191406-17.496093 6.195312-2.558594 37.207031-16.453125 39.273438-38.097657l4.230468-44.394531h-.011718l7.398437-77.710937c1.289063-13.550782 11.035156-24.859375 24.242187-28.140625 55.648438-13.851563 94.164063-63.613281 93.679688-121.019531-.535156-61.359376-46.949219-113.59375-107.984375-121.503907zm-67.617187 414.582031c-51.105469 21.519532-109.71875 21.53125-160.859376-.019531-11.007812-4.589843-27.664062-15.21875-28.449218-23.464843l-1.09375-11.457032c34.914062 16.878906 71.832031 25.425782 109.992187 25.425782 38.160157 0 75.078125-8.546876 109.992188-25.425782l-1.09375 11.457032c-.769531 8.246093-17.4375 18.882812-28.488281 23.484374zm77.679687-189.203124c-20.453125 5.09375-35.546875 22.625-37.550781 43.605468l-8.546875 89.707032c-35.34375 18.988281-72.984375 28.707031-111.984375 28.707031s-76.640625-9.71875-111.988282-28.707031l-8.542968-89.707032c-2.003906-20.988281-17.097656-38.511718-37.550782-43.605468-47.671874-11.863282-80.675781-54.519532-80.261718-103.726563.449218-52.59375 40.253906-97.355469 92.59375-104.136719 4.449218-.574218 8.90625-.875 13.355468-.875 11.589844 0 23.136719 1.960938 34.453126 5.855469l6.390624 2.199219 3.796876-5.597656c19.765624-29.15625 52.570312-46.582032 87.753906-46.582032 35.1875 0 67.992187 17.425782 87.757812 46.589844l3.792969 5.597656 6.394531-2.199218c15.660156-5.386719 31.742188-7.0625 47.808594-4.980469 52.328125 6.773437 92.140625 51.539062 92.59375 104.132812.410156 49.210938-32.59375 91.867188-80.265625 103.722657zm0 0"/><path d="m166.625 300.210938c-4.835938.597656-8.269531 5.015624-7.660156 9.851562l8.828125 70.621094c.554687 4.464844 4.359375 7.730468 8.746093 7.730468.371094 0 .734376-.027343 1.101563-.070312 4.839844-.597656 8.273437-5.015625 7.664063-9.851562l-8.828126-70.621094c-.609374-4.84375-5.066406-8.21875-9.851562-7.660156zm0 0"/><path d="m229.511719 317.796875c-4.871094 0-8.828125 3.945313-8.828125 8.828125v70.621094c0 4.878906 3.957031 8.824218 8.828125 8.824218 4.875 0 8.828125-3.945312 8.828125-8.824218v-70.621094c0-4.882812-3.953125-8.828125-8.828125-8.828125zm0 0"/><path d="m345.367188 300.210938c-4.792969-.558594-9.25 2.816406-9.851563 7.660156l-8.828125 70.621094c-.601562 4.839843 2.824219 9.253906 7.660156 9.851562.371094.042969.742188.070312 1.105469.070312 4.386719 0 8.191406-3.265624 8.746094-7.730468l8.828125-70.621094c.609375-4.835938-2.824219-9.253906-7.660156-9.851562zm0 0"/><path d="m282.476562 317.796875c-4.871093 0-8.828124 3.945313-8.828124 8.828125v70.621094c0 4.878906 3.957031 8.824218 8.828124 8.824218 4.875 0 8.828126-3.945312 8.828126-8.824218v-70.621094c0-4.882812-3.953126-8.828125-8.828126-8.828125zm0 0"/><path d="m141.335938 88.277344c-73.695313-.625-88.039063 59.296875-88.164063 59.90625-1.050781 4.757812 1.96875 9.460937 6.726563 10.503906.636718.140625 1.28125.203125 1.898437.203125 4.054687 0 7.714844-2.808594 8.617187-6.9375.105469-.46875 10.691407-47.042969 70.734376-46.027344 4.722656-.328125 8.871093-3.867187 8.925781-8.730469.050781-4.867187-3.867188-8.863281-8.738281-8.917968zm0 0"/><path d="m206.464844 54.804688c-3.859375 2.980468-4.574219 8.527343-1.589844 12.382812 2.976562 3.859375 8.527344 4.554688 12.382812 1.597656.363282-.292968 37.269532-28.089844 77.824219.238282 1.535157 1.078124 3.304688 1.597656 5.050781 1.597656 2.789063 0 5.523438-1.316406 7.246094-3.777344 2.789063-3.992188 1.820313-9.5-2.179687-12.289062-40.878907-28.539063-82.457031-12.304688-98.734375.25zm0 0"/></svg>